# xmcd
#
# Track frame offsets: 
#        150
#        18955
#        32030
#        47412
#        62725
#        77550
#        94005
#        111682
#        124362
#        137440
#        156287
#        172980
#        188492
#        203485
#        222662
#
# Disc length: 3078 seconds
#
# Revision: 2
# Processed by: cddbd v1.5.2PL0 Copyright (c) Steve Scherf et al.
# Submitted via: ExactAudioCopy v0.99pb5
#
DISCID=c80c040f
DTITLE=Williams, Big Joe and J.D. Short - Stavin' Chain Blues
DYEAR=1900
DGENRE=Blues
TTITLE0=Stavin' Chain Blues
TTITLE1=Roll and Tumble
TTITLE2=Mean Stepfather
TTITLE3=You Got To Help Me Some
TTITLE4=You're Gonna Need King Jesus (Alt.)
TTITLE5=Jumpin' In The Moonlight
TTITLE6=Rocks and Gravel
TTITLE7=Sweet Old Kokomo
TTITLE8=Nobody Knows Chicago
TTITLE9=Gonna Check Up On My Baby
TTITLE10=You're Gonna Need King Jesus
TTITLE11=Rambled And Wandered
TTITLE12=Going Back To Crawford, Miss
TTITLE13=Stavin' Chain Blues (Alt.)
TTITLE14=J.D. Talks
EXTD=Delmark DD-609\n\nOriginal recording date:  February 8, 1958\n\nS
EXTD=ubmitted 6/11/97\n[Jmccoy@efn.org]
EXTT0=
EXTT1=
EXTT2=
EXTT3=
EXTT4=
EXTT5=
EXTT6=
EXTT7=
EXTT8=
EXTT9=
EXTT10=
EXTT11=
EXTT12=
EXTT13=
EXTT14=
PLAYORDER=
